<svg width="16" height="16" viewBox="0 0 16 16" fill="none" xmlns="http://www.w3.org/2000/svg">
<mask id="path-1-inside-1_56_7370" fill="currentColor">
<path d="M7.99992 15.1666C4.04659 15.1666 0.833252 11.9533 0.833252 7.99992C0.833252 4.04659 4.04659 0.833252 7.99992 0.833252C11.9533 0.833252 15.1666 4.04659 15.1666 7.99992C15.1666 11.9533 11.9533 15.1666 7.99992 15.1666ZM7.99992 1.83325C4.59992 1.83325 1.83325 4.59992 1.83325 7.99992C1.83325 11.3999 4.59992 14.1666 7.99992 14.1666C11.3999 14.1666 14.1666 11.3999 14.1666 7.99992C14.1666 4.59992 11.3999 1.83325 7.99992 1.83325Z"/>
</mask>
<path d="M7.99992 15.1666C4.04659 15.1666 0.833252 11.9533 0.833252 7.99992C0.833252 4.04659 4.04659 0.833252 7.99992 0.833252C11.9533 0.833252 15.1666 4.04659 15.1666 7.99992C15.1666 11.9533 11.9533 15.1666 7.99992 15.1666ZM7.99992 1.83325C4.59992 1.83325 1.83325 4.59992 1.83325 7.99992C1.83325 11.3999 4.59992 14.1666 7.99992 14.1666C11.3999 14.1666 14.1666 11.3999 14.1666 7.99992C14.1666 4.59992 11.3999 1.83325 7.99992 1.83325Z" fill="currentColor"/>
<path d="M7.99992 13.6666C4.87501 13.6666 2.33325 11.1248 2.33325 7.99992H-0.666748C-0.666748 12.7817 3.21816 16.6666 7.99992 16.6666V13.6666ZM2.33325 7.99992C2.33325 4.87501 4.87501 2.33325 7.99992 2.33325V-0.666748C3.21816 -0.666748 -0.666748 3.21816 -0.666748 7.99992H2.33325ZM7.99992 2.33325C11.1248 2.33325 13.6666 4.87501 13.6666 7.99992H16.6666C16.6666 3.21816 12.7817 -0.666748 7.99992 -0.666748V2.33325ZM13.6666 7.99992C13.6666 11.1248 11.1248 13.6666 7.99992 13.6666V16.6666C12.7817 16.6666 16.6666 12.7817 16.6666 7.99992H13.6666ZM7.99992 0.333252C3.77149 0.333252 0.333252 3.77149 0.333252 7.99992H3.33325C3.33325 5.42835 5.42835 3.33325 7.99992 3.33325V0.333252ZM0.333252 7.99992C0.333252 12.2283 3.77149 15.6666 7.99992 15.6666V12.6666C5.42835 12.6666 3.33325 10.5715 3.33325 7.99992H0.333252ZM7.99992 15.6666C12.2283 15.6666 15.6666 12.2283 15.6666 7.99992H12.6666C12.6666 10.5715 10.5715 12.6666 7.99992 12.6666V15.6666ZM15.6666 7.99992C15.6666 3.77149 12.2283 0.333252 7.99992 0.333252V3.33325C10.5715 3.33325 12.6666 5.42835 12.6666 7.99992H15.6666Z" fill="currentColor" mask="url(#path-1-inside-1_56_7370)"/>
<mask id="path-3-inside-2_56_7370" fill="currentColor">
<path d="M8.16007 11.1666C6.41341 11.1666 4.99341 9.74659 4.99341 7.99992C4.99341 6.25325 6.41341 4.83325 8.16007 4.83325C8.92674 4.83325 9.67341 5.11325 10.2467 5.62659C10.4534 5.80659 10.4734 6.12659 10.2934 6.33325C10.1134 6.53992 9.79342 6.55992 9.58675 6.37992C9.19342 6.03326 8.68674 5.83993 8.16007 5.83993C6.96674 5.83993 5.99341 6.81326 5.99341 8.00659C5.99341 9.19993 6.96674 10.1733 8.16007 10.1733C8.68007 10.1733 9.19342 9.97993 9.58675 9.63326C9.79342 9.45326 10.1134 9.47327 10.2934 9.67993C10.4734 9.8866 10.4534 10.2066 10.2467 10.3866C9.66674 10.8866 8.92674 11.1666 8.16007 11.1666Z"/>
</mask>
<path d="M8.16007 11.1666C6.41341 11.1666 4.99341 9.74659 4.99341 7.99992C4.99341 6.25325 6.41341 4.83325 8.16007 4.83325C8.92674 4.83325 9.67341 5.11325 10.2467 5.62659C10.4534 5.80659 10.4734 6.12659 10.2934 6.33325C10.1134 6.53992 9.79342 6.55992 9.58675 6.37992C9.19342 6.03326 8.68674 5.83993 8.16007 5.83993C6.96674 5.83993 5.99341 6.81326 5.99341 8.00659C5.99341 9.19993 6.96674 10.1733 8.16007 10.1733C8.68007 10.1733 9.19342 9.97993 9.58675 9.63326C9.79342 9.45326 10.1134 9.47327 10.2934 9.67993C10.4734 9.8866 10.4534 10.2066 10.2467 10.3866C9.66674 10.8866 8.92674 11.1666 8.16007 11.1666Z" fill="currentColor"/>
<path d="M10.2467 5.62659L9.24617 6.74411L9.25383 6.75096L9.26157 6.75771L10.2467 5.62659ZM9.58675 6.37992L8.59493 7.50526L8.60158 7.51105L9.58675 6.37992ZM9.58675 9.63326L8.60156 8.50212L8.59495 8.50795L9.58675 9.63326ZM10.2467 10.3866L11.2262 11.5227L11.2319 11.5177L10.2467 10.3866ZM8.16007 9.66659C7.24184 9.66659 6.49341 8.91816 6.49341 7.99992H3.49341C3.49341 10.575 5.58498 12.6666 8.16007 12.6666V9.66659ZM6.49341 7.99992C6.49341 7.08168 7.24184 6.33325 8.16007 6.33325V3.33325C5.58498 3.33325 3.49341 5.42483 3.49341 7.99992H6.49341ZM8.16007 6.33325C8.56396 6.33325 8.95269 6.48134 9.24617 6.74411L11.2473 4.50906C10.3941 3.74517 9.28952 3.33325 8.16007 3.33325V6.33325ZM9.26157 6.75771C8.83502 6.38619 8.80565 5.75756 9.16229 5.34808L11.4245 7.31842C12.1412 6.49561 12.0718 5.22698 11.2319 4.49546L9.26157 6.75771ZM9.16229 5.34808C9.53381 4.92153 10.1624 4.89216 10.5719 5.2488L8.60158 7.51105C9.42439 8.22769 10.693 8.15831 11.4245 7.31842L9.16229 5.34808ZM10.5786 5.25461C9.91339 4.66836 9.05477 4.33993 8.16007 4.33993V7.33993C8.31871 7.33993 8.47345 7.39815 8.59495 7.50524L10.5786 5.25461ZM8.16007 4.33993C6.13831 4.33993 4.49341 5.98483 4.49341 8.00659H7.49341C7.49341 7.64169 7.79517 7.33993 8.16007 7.33993V4.33993ZM4.49341 8.00659C4.49341 10.0284 6.13831 11.6733 8.16007 11.6733V8.67326C7.79517 8.67326 7.49341 8.3715 7.49341 8.00659H4.49341ZM8.16007 11.6733C9.04567 11.6733 9.91156 11.3464 10.5786 10.7586L8.59495 8.50795C8.47528 8.61342 8.31448 8.67326 8.16007 8.67326V11.6733ZM10.5719 10.7644C10.1624 11.121 9.53381 11.0917 9.16229 10.6651L11.4245 8.69476C10.693 7.85487 9.42439 7.78549 8.60158 8.50214L10.5719 10.7644ZM9.16229 10.6651C8.80565 10.2556 8.83502 9.62699 9.26157 9.25547L11.2319 11.5177C12.0718 10.7862 12.1412 9.51757 11.4245 8.69476L9.16229 10.6651ZM9.26733 9.25048C8.95472 9.51997 8.56077 9.66659 8.16007 9.66659V12.6666C9.29272 12.6666 10.3788 12.2532 11.2262 11.5227L9.26733 9.25048Z" fill="currentColor" mask="url(#path-3-inside-2_56_7370)"/>
</svg>
