<svg width="39" height="29" viewBox="0 0 39 29" fill="none" xmlns="http://www.w3.org/2000/svg">
<path d="M19.2537 28.875C18.4347 28.8709 17.6268 28.6845 16.8888 28.3293C16.1507 27.9741 15.501 27.4591 14.9867 26.8217L1.47958 10.4592C0.690311 9.47411 0.193635 8.28714 0.0461516 7.03353C-0.101332 5.77992 0.106309 4.51009 0.645413 3.36875C1.08264 2.37682 1.79616 1.5317 2.70073 0.934339C3.60531 0.336977 4.66272 0.0126186 5.74666 0H32.7608C33.8448 0.0126186 34.9022 0.336977 35.8068 0.934339C36.7113 1.5317 37.4248 2.37682 37.8621 3.36875C38.4012 4.51009 38.6088 5.77992 38.4613 7.03353C38.3139 8.28714 37.8172 9.47411 37.0279 10.4592L23.5208 26.8217C23.0065 27.4591 22.3568 27.9741 21.6187 28.3293C20.8807 28.6845 20.0728 28.8709 19.2537 28.875Z" fill="currentColor"/>
</svg>