<svg width="208" height="43" viewBox="0 0 208 43" fill="none" xmlns="http://www.w3.org/2000/svg">
<path d="M12.7567 1.7814C13.4985 0.668492 14.7475 0 16.085 0H190.848C192.133 0 193.339 0.616871 194.091 1.65824L206.354 18.6393C207.341 20.007 207.365 21.8473 206.412 23.2396L194.085 41.2585C193.34 42.3483 192.104 43 190.784 43H16.149C14.7764 43 13.4997 42.2963 12.7669 41.1358L1.3859 23.1135C0.542929 21.7787 0.563983 20.0728 1.43965 18.7592L12.7567 1.7814Z" fill="#B66A6A"/>
<path d="M47.4714 24.724C47.7594 24.676 47.9754 24.652 48.1194 24.652C48.2754 24.652 48.6054 24.694 49.1094 24.778C49.1574 24.874 49.2234 25.18 49.3074 25.696C49.4034 26.212 49.4514 26.632 49.4514 26.956C49.4514 27.268 49.4154 27.616 49.3434 28H40.6134L40.4514 27.01C41.0394 26.77 41.5434 26.596 41.9634 26.488C41.9634 26.452 41.9094 23.278 41.8014 16.966L40.3074 16.498L40.4514 15.4H45.1314C45.1194 15.4 45.1194 15.412 45.1314 15.436C45.1554 15.46 45.1794 15.514 45.2034 15.598C45.2394 15.67 45.2754 15.76 45.3114 15.868C45.3834 16.06 45.4314 16.378 45.4554 16.822C44.8434 16.918 44.4414 16.978 44.2494 17.002C44.2014 21.142 44.1714 24.232 44.1594 26.272H47.0754L47.4714 24.724ZM54.1998 17.2C54.1998 18.568 54.1878 19.744 54.1638 20.728H55.9998L56.1798 19.486C56.7918 19.486 57.3858 19.636 57.9618 19.936V23.536L56.7738 23.59C56.4858 23.158 56.3178 22.78 56.2698 22.456H54.1458C54.1218 24.136 54.1098 25.402 54.1098 26.254H57.1878L57.5838 24.688C58.3278 24.688 58.8918 24.724 59.2758 24.796C59.4558 25.48 59.5458 26.104 59.5458 26.668C59.5458 27.22 59.5278 27.664 59.4918 28H50.5638L50.4018 27.01C51.1818 26.71 51.6858 26.536 51.9138 26.488C51.9018 25.78 51.8898 24.784 51.8778 23.5C51.8298 20.62 51.7878 18.442 51.7518 16.966L50.2578 16.498L50.4018 15.4H59.2398C59.2758 15.724 59.2938 16.132 59.2938 16.624C59.2938 17.104 59.2038 17.776 59.0238 18.64C58.6518 18.76 58.0878 18.82 57.3318 18.82L56.9178 17.2H54.1998ZM69.7649 15.598L69.7829 15.778C69.7829 16.27 69.7049 16.69 69.5489 17.038C69.3929 17.158 69.1469 17.254 68.8109 17.326L71.8169 26.218L73.5269 26.434C73.5269 26.926 73.3889 27.448 73.1129 28H68.7389L68.5769 27.01C69.0809 26.818 69.4109 26.692 69.5669 26.632L68.8469 24.598H64.7969C64.4369 25.666 64.2449 26.224 64.2209 26.272L65.4629 26.434C65.4629 26.686 65.4149 26.98 65.3189 27.316C65.2229 27.64 65.1329 27.868 65.0489 28H60.6749L60.5129 27.01C61.0529 26.782 61.5389 26.614 61.9709 26.506L64.9949 17.254C64.1909 17.134 63.5849 16.978 63.1769 16.786C63.1769 16.438 63.2309 16.132 63.3389 15.868C63.5909 15.784 64.1789 15.688 65.1029 15.58C66.0389 15.46 66.9269 15.4 67.7669 15.4C68.6189 15.4 69.2849 15.466 69.7649 15.598ZM67.4429 20.548L66.9209 18.172H66.7409L66.1649 20.656L65.3189 22.906H68.3249L67.4429 20.548ZM78.7875 15.4C80.8875 15.4 82.2795 15.7 82.9635 16.3C83.5875 16.84 83.8995 17.674 83.8995 18.802C83.8995 20.554 82.9875 21.748 81.1635 22.384L83.7555 26.29L85.3035 26.452C85.3035 26.968 85.1655 27.484 84.8895 28H82.2795L78.7515 22.618H78.1755L78.1215 26.29L79.4355 26.434C79.4355 26.926 79.2975 27.448 79.0215 28H74.5755L74.4135 27.01C75.1335 26.722 75.6375 26.548 75.9255 26.488C75.9015 25.012 75.8715 23.23 75.8355 21.142C75.7995 19.054 75.7755 17.656 75.7635 16.948L74.2695 16.498C74.2815 16.222 74.3355 15.856 74.4315 15.4H78.7875ZM80.2095 17.326C79.8375 17.242 79.3395 17.2 78.7155 17.2H78.2115C78.1875 18.856 78.1755 20.098 78.1755 20.926L79.0575 20.908C79.7655 20.896 80.3235 20.752 80.7315 20.476C81.1515 20.188 81.3615 19.636 81.3615 18.82C81.3615 18.004 80.9775 17.506 80.2095 17.326ZM98.322 17.002L98.268 28H95.964L90.024 18.316C89.976 21.832 89.946 24.484 89.934 26.272L91.176 26.434C91.176 26.926 91.038 27.448 90.762 28H86.388L86.226 27.01C86.898 26.734 87.402 26.56 87.738 26.488C87.738 26.452 87.684 23.278 87.576 16.966L86.082 16.498L86.226 15.4H90.906L96.144 24.796L95.874 16.966L94.38 16.498L94.524 15.4H99.204C99.192 15.4 99.192 15.412 99.204 15.436C99.228 15.46 99.252 15.514 99.276 15.598C99.312 15.67 99.348 15.76 99.384 15.868C99.456 16.06 99.504 16.378 99.528 16.822C98.916 16.918 98.514 16.978 98.322 17.002ZM104.999 18.676C104.807 17.848 104.711 17.194 104.711 16.714C104.711 16.234 104.729 15.796 104.765 15.4H115.223C115.271 15.976 115.295 16.366 115.295 16.57C115.295 17.086 115.199 17.788 115.007 18.676C114.659 18.772 114.089 18.82 113.297 18.82L112.883 17.002H111.353C111.341 17.458 111.287 20.548 111.191 26.272L112.487 26.434C112.487 26.986 112.349 27.508 112.073 28H107.699L107.537 27.01C108.365 26.698 108.887 26.524 109.103 26.488C109.103 26.44 109.031 23.284 108.887 17.02H107.105L106.709 18.784C106.001 18.784 105.431 18.748 104.999 18.676ZM121.47 26.308C123.462 26.308 124.458 24.778 124.458 21.718C124.458 18.658 123.462 17.128 121.47 17.128C120.606 17.128 119.85 17.26 119.202 17.524C118.65 18.676 118.374 20.014 118.374 21.538C118.374 23.05 118.602 24.226 119.058 25.066C119.514 25.894 120.318 26.308 121.47 26.308ZM121.47 15.184C123.474 15.184 124.884 15.712 125.7 16.768C126.516 17.812 126.924 19.414 126.924 21.574C126.924 22.93 126.75 24.088 126.402 25.048C126.054 26.008 125.466 26.776 124.638 27.352C123.81 27.928 122.754 28.216 121.47 28.216C119.514 28.216 118.092 27.67 117.204 26.578C116.328 25.486 115.89 23.896 115.89 21.808C115.89 17.392 117.75 15.184 121.47 15.184ZM138.615 21.43C138.615 24.07 137.985 25.906 136.725 26.938C136.209 27.346 135.651 27.628 135.051 27.784C134.451 27.928 133.665 28 132.693 28H128.031L127.869 27.01C128.781 26.674 129.285 26.5 129.381 26.488C129.381 26.452 129.327 23.278 129.219 16.966C128.691 16.834 128.193 16.678 127.725 16.498C127.797 15.874 127.845 15.508 127.869 15.4H132.639C133.815 15.4 134.751 15.52 135.447 15.76C136.155 16 136.779 16.426 137.319 17.038C138.183 18.046 138.615 19.51 138.615 21.43ZM132.855 26.254C134.223 26.254 135.129 25.924 135.573 25.264C136.029 24.604 136.257 23.464 136.257 21.844C136.257 20.224 136.005 19.048 135.501 18.316C134.997 17.572 134.157 17.2 132.981 17.2H131.667C131.619 21.244 131.589 24.262 131.577 26.254H132.855ZM148.532 15.598L148.55 15.778C148.55 16.27 148.472 16.69 148.316 17.038C148.16 17.158 147.914 17.254 147.578 17.326L150.584 26.218L152.294 26.434C152.294 26.926 152.156 27.448 151.88 28H147.506L147.344 27.01C147.848 26.818 148.178 26.692 148.334 26.632L147.614 24.598H143.564C143.204 25.666 143.012 26.224 142.988 26.272L144.23 26.434C144.23 26.686 144.182 26.98 144.086 27.316C143.99 27.64 143.9 27.868 143.816 28H139.442L139.28 27.01C139.82 26.782 140.306 26.614 140.738 26.506L143.762 17.254C142.958 17.134 142.352 16.978 141.944 16.786C141.944 16.438 141.998 16.132 142.106 15.868C142.358 15.784 142.946 15.688 143.87 15.58C144.806 15.46 145.694 15.4 146.534 15.4C147.386 15.4 148.052 15.466 148.532 15.598ZM146.21 20.548L145.688 18.172H145.508L144.932 20.656L144.086 22.906H147.092L146.21 20.548ZM159.841 23.284L159.823 26.272L161.065 26.434C161.065 26.926 160.927 27.448 160.651 28H156.277L156.115 27.01C156.943 26.686 157.447 26.512 157.627 26.488C157.627 25.78 157.615 24.718 157.591 23.302L154.189 16.984L152.605 16.498L152.749 15.4H157.429C157.645 15.796 157.753 16.27 157.753 16.822C157.477 16.87 157.123 16.924 156.691 16.984L158.617 21.322H158.779L160.831 16.966C160.423 16.882 159.925 16.726 159.337 16.498L159.463 15.4H164.161C164.365 15.7 164.473 16.174 164.485 16.822C164.017 16.918 163.549 16.984 163.081 17.02L159.841 23.284ZM168.548 24.634C168.368 24.67 168.134 24.688 167.846 24.688C167.57 24.688 167.234 24.658 166.838 24.598L166.406 15.004C166.754 14.968 167.132 14.95 167.54 14.95C167.96 14.95 168.38 14.998 168.8 15.094L168.548 24.634ZM166.496 25.768C166.964 25.732 167.36 25.714 167.684 25.714C168.02 25.714 168.428 25.768 168.908 25.876C168.956 26.224 168.98 26.542 168.98 26.83C168.98 27.106 168.926 27.514 168.818 28.054C168.35 28.09 167.948 28.108 167.612 28.108C167.288 28.108 166.886 28.054 166.406 27.946C166.358 27.598 166.334 27.286 166.334 27.01C166.334 26.722 166.388 26.308 166.496 25.768Z" fill="white"/>
</svg>
