<svg width="32" height="32" viewBox="0 0 32 32" fill="none" xmlns="http://www.w3.org/2000/svg">
<path d="M22.6667 27.5834H9.33342C7.04245 27.5834 5.3376 26.9269 4.20541 25.7948C3.07322 24.6626 2.41675 22.9577 2.41675 20.6667V11.3334C2.41675 9.04245 3.07322 7.3376 4.20541 6.20541C5.3376 5.07322 7.04245 4.41675 9.33342 4.41675H22.6667C24.9577 4.41675 26.6626 5.07322 27.7948 6.20541C28.9269 7.3376 29.5834 9.04245 29.5834 11.3334V20.6667C29.5834 22.9577 28.9269 24.6626 27.7948 25.7948C26.6626 26.9269 24.9577 27.5834 22.6667 27.5834ZM9.33342 4.91675C7.31651 4.91675 5.67267 5.40683 4.53975 6.53975C3.40683 7.67267 2.91675 9.31651 2.91675 11.3334V20.6667C2.91675 22.6836 3.40683 24.3275 4.53975 25.4604C5.67267 26.5933 7.31651 27.0834 9.33342 27.0834H22.6667C24.6836 27.0834 26.3275 26.5933 27.4604 25.4604C28.5933 24.3275 29.0834 22.6836 29.0834 20.6667V11.3334C29.0834 9.31651 28.5933 7.67267 27.4604 6.53975C26.3275 5.40683 24.6836 4.91675 22.6667 4.91675H9.33342Z" fill="currentColor" stroke="currentColor" stroke-width="1.5"/>
<path d="M13.3536 15.5254L13.3536 15.5253L13.3477 15.5206L9.17754 12.1898C9.05768 12.091 9.05634 11.9349 9.12838 11.8462C9.22713 11.7247 9.38427 11.723 9.47335 11.7954L9.47334 11.7954L9.47823 11.7993L13.6502 15.1315C13.6504 15.1318 13.6507 15.132 13.651 15.1322C14.3145 15.6644 15.1726 15.9066 15.9929 15.9066C16.8133 15.9066 17.6714 15.6644 18.335 15.1322C18.3352 15.1319 18.3355 15.1317 18.3357 15.1315L22.5077 11.7993L22.5077 11.7993L22.5126 11.7954C22.6206 11.7076 22.7728 11.7351 22.8418 11.8262L22.8495 11.8363L22.8575 11.8462C22.9453 11.9542 22.9179 12.1065 22.8267 12.1755L22.8191 12.1813L22.8116 12.1873L18.6382 15.5206L18.6382 15.5205L18.6279 15.529C17.9303 16.1067 16.9746 16.41 15.9996 16.41C15.0259 16.41 14.0673 16.1073 13.3536 15.5254Z" fill="currentColor" stroke="currentColor" stroke-width="1.5"/>
</svg>
