<svg width="32" height="32" viewBox="0 0 32 32" fill="currentColor" xmlns="http://www.w3.org/2000/svg">
<path d="M29.2934 24.4401C29.2934 24.9201 29.1867 25.4134 28.9601 25.8934C28.7334 26.3734 28.4401 26.8267 28.0534 27.2534C27.4001 27.9734 26.6801 28.4934 25.8667 28.8267C25.0667 29.1601 24.2001 29.3334 23.2667 29.3334C21.9067 29.3334 20.4534 29.0134 18.9201 28.3601C17.3867 27.7067 15.8534 26.8267 14.3334 25.7201C12.8001 24.6001 11.3467 23.3601 9.96008 21.9867C8.58675 20.6001 7.34675 19.1467 6.24008 17.6267C5.14675 16.1067 4.26675 14.5867 3.62675 13.0801C2.98675 11.5601 2.66675 10.1067 2.66675 8.72008C2.66675 7.81341 2.82675 6.94675 3.14675 6.14675C3.46675 5.33341 3.97341 4.58675 4.68008 3.92008C5.53341 3.08008 6.46675 2.66675 7.45342 2.66675C7.82675 2.66675 8.20008 2.74675 8.53342 2.90675C8.88008 3.06675 9.18675 3.30675 9.42675 3.65341L12.5201 8.01342C12.7601 8.34675 12.9334 8.65341 13.0534 8.94675C13.1734 9.22675 13.2401 9.50675 13.2401 9.76008C13.2401 10.0801 13.1467 10.4001 12.9601 10.7067C12.7867 11.0134 12.5334 11.3334 12.2134 11.6534L11.2001 12.7067C11.0534 12.8534 10.9867 13.0267 10.9867 13.2401C10.9867 13.3467 11.0001 13.4401 11.0267 13.5467C11.0667 13.6534 11.1067 13.7334 11.1334 13.8134C11.3734 14.2534 11.7867 14.8267 12.3734 15.5201C12.9734 16.2134 13.6134 16.9201 14.3067 17.6267C15.0267 18.3334 15.7201 18.9867 16.4267 19.5867C17.1201 20.1734 17.6934 20.5734 18.1467 20.8134C18.2134 20.8401 18.2934 20.8801 18.3867 20.9201C18.4934 20.9601 18.6001 20.9734 18.7201 20.9734C18.9467 20.9734 19.1201 20.8934 19.2667 20.7467L20.2801 19.7467C20.6134 19.4134 20.9334 19.1601 21.2401 19.0001C21.5467 18.8134 21.8534 18.7201 22.1867 18.7201C22.4401 18.7201 22.7067 18.7734 23.0001 18.8934C23.2934 19.0134 23.6001 19.1867 23.9334 19.4134L28.3467 22.5467C28.6934 22.7867 28.9334 23.0667 29.0801 23.4001C29.2134 23.7334 29.2934 24.0667 29.2934 24.4401Z" stroke="white" stroke-width="1.5" stroke-miterlimit="10"/>
</svg>
