<svg width="39" height="29" viewBox="0 0 39 29" fill="none" xmlns="http://www.w3.org/2000/svg">
<path d="M32.7608 28.6097H5.74666C4.68017 28.6112 3.63505 28.3107 2.73226 27.7429C1.82948 27.1751 1.10594 26.3633 0.645413 25.4014C0.106309 24.26 -0.101332 22.9902 0.0461516 21.7366C0.193635 20.483 0.690311 19.296 1.47958 18.3109L14.9867 1.94844C15.5167 1.33684 16.1721 0.846331 16.9083 0.510157C17.6445 0.173983 18.4444 0 19.2537 0C20.0631 0 20.863 0.173983 21.5992 0.510157C22.3354 0.846331 22.9908 1.33684 23.5208 1.94844L37.0279 18.3109C37.8172 19.296 38.3139 20.483 38.4613 21.7366C38.6088 22.9902 38.4012 24.26 37.8621 25.4014C37.4015 26.3633 36.678 27.1751 35.7752 27.7429C34.8724 28.3107 33.8273 28.6112 32.7608 28.6097Z" fill="currentColor"/>
</svg>
