<svg width="12" height="12" viewBox="0 0 12 12" fill="none" xmlns="http://www.w3.org/2000/svg">
<path d="M6 4.00286C4.89429 4.00286 4.00286 4.90286 4.00286 6C4.00286 7.09714 4.90286 7.99714 6 7.99714C7.09714 7.99714 7.99714 7.09714 7.99714 6C7.99714 4.90286 7.09714 4.00286 6 4.00286ZM12 6C12 5.16857 12 4.35429 11.9571 3.52286C11.9143 2.56286 11.6914 1.70571 10.9886 1.01143C10.2857 0.308571 9.43714 0.0857142 8.47714 0.0428571C7.64571 -4.15104e-08 6.83143 0 6 0C5.16857 0 4.35429 -4.15104e-08 3.52286 0.0428571C2.56286 0.0857142 1.70571 0.308571 1.01143 1.01143C0.308571 1.71429 0.0857142 2.56286 0.0428571 3.52286C-4.15104e-08 4.35429 0 5.16857 0 6C0 6.83143 -4.15104e-08 7.64571 0.0428571 8.47714C0.0857142 9.43714 0.308571 10.2943 1.01143 10.9886C1.71429 11.6914 2.56286 11.9143 3.52286 11.9571C4.35429 12 5.16857 12 6 12C6.83143 12 7.64571 12 8.47714 11.9571C9.43714 11.9143 10.2943 11.6914 10.9886 10.9886C11.6914 10.2857 11.9143 9.43714 11.9571 8.47714C12.0086 7.65429 12 6.83143 12 6ZM6 9.07714C4.29429 9.07714 2.92286 7.70571 2.92286 6C2.92286 4.29429 4.29429 2.92286 6 2.92286C7.70571 2.92286 9.07714 4.29429 9.07714 6C9.07714 7.70571 7.70571 9.07714 6 9.07714ZM9.20571 3.51429C8.81143 3.51429 8.48571 3.19714 8.48571 2.79429C8.48571 2.39143 8.80286 2.07429 9.20571 2.07429C9.60857 2.07429 9.92571 2.39143 9.92571 2.79429C9.92788 2.88817 9.91074 2.98151 9.87536 3.0685C9.83997 3.15549 9.78709 3.23429 9.72 3.3C9.65429 3.36709 9.57549 3.41997 9.4885 3.45536C9.40151 3.49074 9.30817 3.50788 9.21429 3.50571L9.20571 3.51429Z" fill="currentColor"/>
</svg>
