<svg width="35" height="35" viewBox="0 0 35 35" fill="none" xmlns="http://www.w3.org/2000/svg">
<path d="M27.0833 7.12258C25.7843 5.81089 24.2373 4.77086 22.5323 4.06309C20.8273 3.35532 18.9985 2.99396 17.1525 3.00008C9.4175 3.00008 3.11333 9.30424 3.11333 17.0392C3.11333 19.5184 3.765 21.9267 4.98333 24.0517L3 31.3334L10.4375 29.3784C12.4917 30.4976 14.8008 31.0926 17.1525 31.0926C24.8875 31.0926 31.1917 24.7884 31.1917 17.0534C31.1917 13.2992 29.7325 9.77174 27.0833 7.12258ZM17.1525 28.7126C15.0558 28.7126 13.0017 28.1459 11.2025 27.0834L10.7775 26.8284L6.3575 27.9901L7.53333 23.6834L7.25 23.2442C6.08486 21.3842 5.46631 19.234 5.465 17.0392C5.465 10.6076 10.7067 5.36591 17.1383 5.36591C20.255 5.36591 23.1875 6.58424 25.3833 8.79424C26.4708 9.87638 27.3326 11.1637 27.9186 12.5815C28.5047 13.9992 28.8034 15.5193 28.7975 17.0534C28.8258 23.4851 23.5842 28.7126 17.1525 28.7126ZM23.5558 19.9859C23.2017 19.8159 21.4733 18.9659 21.1617 18.8384C20.8358 18.7251 20.6092 18.6684 20.3683 19.0084C20.1275 19.3626 19.4617 20.1559 19.2633 20.3826C19.065 20.6234 18.8525 20.6517 18.4983 20.4676C18.1442 20.2976 17.0108 19.9151 15.6792 18.7251C14.6308 17.7901 13.9367 16.6426 13.7242 16.2884C13.5258 15.9342 13.6958 15.7501 13.88 15.5659C14.0358 15.4101 14.2342 15.1551 14.4042 14.9567C14.5742 14.7584 14.645 14.6026 14.7583 14.3759C14.8717 14.1351 14.815 13.9367 14.73 13.7667C14.645 13.5967 13.9367 11.8684 13.6533 11.1601C13.37 10.4801 13.0725 10.5651 12.86 10.5509H12.18C11.9392 10.5509 11.5708 10.6359 11.245 10.9901C10.9333 11.3442 10.0267 12.1942 10.0267 13.9226C10.0267 15.6509 11.2875 17.3226 11.4575 17.5492C11.6275 17.7901 13.9367 21.3317 17.45 22.8476C18.2858 23.2159 18.9375 23.4284 19.4475 23.5842C20.2833 23.8534 21.0483 23.8109 21.6575 23.7259C22.3375 23.6267 23.74 22.8759 24.0233 22.0542C24.3208 21.2326 24.3208 20.5384 24.2217 20.3826C24.1225 20.2267 23.91 20.1559 23.5558 19.9859Z" fill="currentColor"/>
</svg>
