<svg width="17" height="12" viewBox="0 0 17 12" fill="none" xmlns="http://www.w3.org/2000/svg">
<path fill-rule="evenodd" clip-rule="evenodd" d="M4.19132 0.160745C6.93091 -0.0535817 9.68306 -0.0535817 12.4227 0.160745L14.2624 0.305299C14.7607 0.344145 15.2317 0.548662 15.6002 0.886255C15.9688 1.22385 16.2137 1.67509 16.296 2.16807C16.7207 4.70597 16.7207 7.29562 16.296 9.8327C16.2138 10.3256 15.9689 10.7767 15.6006 11.1143C15.2322 11.4519 14.7614 11.6564 14.2633 11.6955L12.4235 11.8392C9.68361 12.0536 6.93118 12.0536 4.19132 11.8392L2.35154 11.6955C1.85325 11.6566 1.3823 11.4521 1.01375 11.1145C0.645193 10.7769 0.400243 10.3257 0.317935 9.8327C-0.105978 7.29541 -0.105978 4.70536 0.317935 2.16807C0.400207 1.67522 0.645037 1.22407 1.01343 0.886494C1.38182 0.548915 1.85258 0.34432 2.35072 0.305299L4.19049 0.161566L4.19132 0.160745ZM6.66433 8.02906V3.9717C6.6644 3.92816 6.676 3.88541 6.69796 3.84781C6.71992 3.81021 6.75146 3.7791 6.78935 3.75765C6.82724 3.7362 6.87014 3.72518 6.91368 3.7257C6.95722 3.72622 6.99985 3.73827 7.03722 3.76062L10.4186 5.7893C10.455 5.81122 10.4851 5.84217 10.506 5.87916C10.5269 5.91614 10.5379 5.9579 10.5379 6.00038C10.5379 6.04287 10.5269 6.08463 10.506 6.12161C10.4851 6.1586 10.455 6.18955 10.4186 6.21147L7.03722 8.24015C6.99985 8.2625 6.95722 8.27455 6.91368 8.27507C6.87014 8.27559 6.82724 8.26457 6.78935 8.24311C6.75146 8.22166 6.71992 8.19056 6.69796 8.15296C6.676 8.11536 6.6644 8.07261 6.66433 8.02906Z" fill="currentColor"/>
</svg>
